Coordinates
version=1
nRows=9
nColumns=63
inDegrees=yes

Units are S.I. units (second, meters, Newtons, ...)
If the header above contains a line with 'inDegrees', this indicates whether rotational values are in degrees (yes) or radians (no).

endheader
time	pelvis_tilt	pelvis_list	pelvis_rotation	pelvis_tx	pelvis_ty	pelvis_tz	hip_flexion_r	hip_adduction_r	hip_rotation_r	knee_angle_r	knee_angle_r_beta	ankle_angle_r	subtalar_angle_r	mtp_angle_r	hip_flexion_l	hip_adduction_l	hip_rotation_l	knee_angle_l	knee_angle_l_beta	ankle_angle_l	subtalar_angle_l	mtp_angle_l	L5_S1_Flex_Ext	L5_S1_Lat_Bending	L5_S1_axial_rotation	L4_L5_Flex_Ext	L4_L5_Lat_Bending	L4_L5_axial_rotation	L3_L4_Flex_Ext	L3_L4_Lat_Bending	L3_L4_axial_rotation	L2_L3_Flex_Ext	L2_L3_Lat_Bending	L2_L3_axial_rotation	L1_L2_Flex_Ext	L1_L2_Lat_Bending	L1_L2_axial_rotation	L1_T12_Flex_Ext	L1_T12_Lat_Bending	L1_T12_axial_rotation	Abs_r3	Abs_r2	Abs_r1	Abs_t1	Abs_t2	neck_flexion	neck_bending	neck_rotation	arm_flex_r	arm_add_r	arm_rot_r	elbow_flex_r	pro_sup_r	wrist_flex_r	wrist_dev_r	arm_flex_l	arm_add_l	arm_rot_l	elbow_flex_l	pro_sup_l	wrist_flex_l	wrist_dev_l
      8.23300000	    -52.98185595	      1.46708102	     -0.21822093	     -0.35624748	      0.98853150	      0.03935683	    101.70794101	     -4.50690081	      1.65776619	     92.78946894	      1.61948174	     -6.67043611	    -11.04690053	      0.00000000	    114.47689470	     -6.36594122	     -0.66414031	     70.16624249	      1.22463196	     -4.00120147	     -1.64353156	      0.00000000	     -0.08845742	     -0.35586130	      0.09258245	     -0.16427427	     -0.47329553	      0.09836886	     -0.14532669	     -0.86524117	      0.09836886	     -0.10109798	     -0.86524117	      0.08100965	     -0.08214156	     -0.72567236	      0.07522324	     -0.05054457	     -0.55122916	      0.06943684	     -0.63184249	     -4.02557421	      0.51491583	      0.00000000	      0.00000000	      0.00000000	      0.00000000	      0.00000000	     67.85654090	     -6.62395588	     -3.50435706	     41.19206100	     48.50384145	      0.00000000	      5.00000014	     71.14006710	     -8.52138303	      4.30705555	     38.98173075	     54.87943915	      0.00000000	      5.00000014
      8.24200000	    -52.88604044	      1.09105068	     -0.34239284	     -0.35591635	      0.98795327	      0.03884853	    102.98089637	     -4.70685132	      1.41897892	     95.41946833	      1.66538389	     -6.56222544	    -10.86803139	      0.00000000	    112.80050952	     -6.29068804	     -0.65851989	     67.69829793	      1.18155820	     -4.61771620	     -1.84270686	      0.00000000	     -0.08821758	     -0.28599781	      0.10341655	     -0.16382887	     -0.38037709	      0.10988008	     -0.14493266	     -0.69537507	      0.10988008	     -0.10082387	     -0.69537507	      0.09048948	     -0.08191885	     -0.58320673	      0.08402594	     -0.05040753	     -0.44301061	      0.07756241	     -0.63012936	     -3.23526442	      0.57517180	      0.00000000	      0.00000000	      0.00000000	      0.00000000	      0.00000000	     67.96542940	     -6.71705031	     -2.92131888	     41.06812750	     48.58424545	      0.00000000	      5.00000014	     70.78564412	     -8.46748294	      3.62855571	     39.20144233	     54.79980710	      0.00000000	      5.00000014
      8.25000000	    -52.77974331	      0.70501105	     -0.42152002	     -0.35544503	      0.98739976	      0.03824093	    104.26245557	     -5.00816384	      1.15634371	     97.98931153	      1.71023612	     -6.36701741	    -10.64726258	      0.00000000	    111.08551104	     -6.19993416	     -0.67545614	     65.30712326	      1.13982433	     -5.21907716	     -2.05843810	      0.00000000	     -0.08864847	     -0.21579961	      0.10637634	     -0.16462907	     -0.28701348	      0.11302486	     -0.14564057	     -0.52469517	      0.11302486	     -0.10131633	     -0.52469517	      0.09307929	     -0.08231897	     -0.44005856	      0.08643077	     -0.05065373	     -0.33427360	      0.07978225	     -0.63320714	     -2.44116835	      0.59163327	      0.00000000	      0.00000000	      0.00000000	      0.00000000	      0.00000000	     68.05518325	     -6.82731612	     -2.32275508	     40.94542750	     48.65937165	      0.00000000	      5.00000014	     70.38691096	     -8.38103250	      2.87003348	     39.45294488	     54.68447619	      0.00000000	      5.00000014
      8.25800000	    -52.67817958	      0.33388604	     -0.52263060	     -0.35492431	      0.98691973	      0.03759377	    105.58453032	     -5.31883887	      0.87159750	    100.44537709	      1.75310255	     -6.19755431	    -10.56019744	      0.00000000	    109.33784939	     -6.15501050	     -0.69345996	     62.95913304	      1.09884417	     -5.68330416	     -2.19443562	      0.00000000	     -0.08897311	     -0.14569676	      0.11614192	     -0.16523196	     -0.19377669	      0.12340079	     -0.14617392	     -0.35424710	      0.12340079	     -0.10168736	     -0.35424710	      0.10162418	     -0.08262043	     -0.29710483	      0.09436531	     -0.05083923	     -0.22568428	      0.08710644	     -0.63552601	     -1.64815086	      0.64594652	      0.00000000	      0.00000000	      0.00000000	      0.00000000	      0.00000000	     68.12281779	     -6.92067661	     -1.83504614	     40.89103067	     48.72259724	      0.00000000	      5.00000014	     70.00101549	     -8.30057968	      2.18117986	     39.68373082	     54.58318254	      0.00000000	      5.00000014
      8.26700000	    -52.57384009	     -0.00974677	     -0.62176536	     -0.35431019	      0.98645989	      0.03690143	    106.93980619	     -5.63950111	      0.62314511	    102.79696153	      1.79414544	     -5.94808564	    -10.57246385	      0.00000000	    107.56838032	     -6.15073704	     -0.75298482	     60.67035311	      1.05889742	     -6.03145562	     -2.18825478	      0.00000000	     -0.08830913	     -0.07929881	      0.12772140	     -0.16399889	     -0.10546741	      0.13570399	     -0.14508307	     -0.19280712	      0.13570399	     -0.10092851	     -0.19280712	      0.11175623	     -0.08200386	     -0.16170613	      0.10377364	     -0.05045984	     -0.12283385	      0.09579105	     -0.63078329	     -0.89704397	      0.71034812	      0.00000000	      0.00000000	      0.00000000	      0.00000000	      0.00000000	     68.15528606	     -7.00629278	     -1.43830929	     40.87620898	     48.77047369	      0.00000000	      5.00000014	     69.60770047	     -8.20893412	      1.56399237	     39.88228044	     54.48036154	      0.00000000	      5.00000014
      8.27500000	    -52.48607705	     -0.38488169	     -1.05099818	     -0.35370760	      0.98613551	      0.03664436	    108.28253145	     -5.61007144	      0.25783953	    104.88933382	      1.83066423	     -5.60911743	    -10.53159779	      0.00000000	    105.86639150	     -6.51162653	     -0.72442316	     58.52909294	      1.02152538	     -6.33131004	     -2.06809938	      0.00000000	     -0.08810234	     -0.00839299	      0.21552999	     -0.16361485	     -0.01116268	      0.22900061	     -0.14474333	     -0.02040672	      0.22900061	     -0.10069216	     -0.02040672	      0.18858874	     -0.08181183	     -0.01711498	      0.17511811	     -0.05034168	     -0.01300074	      0.16164749	     -0.62930619	     -0.09494318	      1.19871312	      0.00000000	      0.00000000	      0.00000000	      0.00000000	      0.00000000	     68.18657246	     -7.12801514	     -1.30239715	     40.88966620	     48.77546912	      0.00000000	      5.00000014	     69.27492218	     -8.10620428	      1.32605155	     40.03047964	     54.40877950	      0.00000000	      5.00000014
      8.28300000	    -52.38400926	     -0.54916556	     -0.82199154	     -0.35299713	      0.98571598	      0.03563155	    109.75183947	     -6.23337702	      0.22143242	    107.10425055	      1.86932181	     -5.08971293	    -10.86521477	      0.00000000	    104.05620073	     -6.26912226	     -0.98747429	     56.33158756	      0.98317168	     -6.60316047	     -1.65258253	      0.00000000	     -0.08751913	      0.03385192	      0.16080496	     -0.16253177	      0.04502306	      0.17085527	     -0.14378517	      0.08230757	      0.17085527	     -0.10002561	      0.08230757	      0.14070434	     -0.08127026	      0.06903084	      0.13065403	     -0.05000843	      0.05243663	      0.12060372	     -0.62514037	      0.38293973	      0.89434896	      0.00000000	      0.00000000	      0.00000000	      0.00000000	      0.00000000	     68.18517429	     -7.17542042	     -0.76670805	     40.90146098	     48.84149895	      0.00000000	      5.00000014	     68.90690117	     -8.00935758	      0.43390537	     40.21910309	     54.26562397	      0.00000000	      5.00000014
      8.29200000	    -52.31236891	     -0.87720018	     -1.24421980	     -0.35242550	      0.98550771	      0.03544697	    111.14570788	     -6.18781400	     -0.12579356	    108.88784269	      1.90045137	     -4.59908789	    -10.93326567	      0.00000000	    102.42362276	     -6.67066983	     -0.97025712	     54.38550949	      0.94920621	     -6.92620905	     -1.38180624	      0.00000000	     -0.08718062	      0.09903214	      0.24385592	     -0.16190313	      0.13171275	      0.25909692	     -0.14322904	      0.24078676	      0.25909692	     -0.09963873	      0.24078676	      0.21337393	     -0.08095593	      0.20194635	      0.19813294	     -0.04981501	      0.15340079	      0.18289194	     -0.62272246	      1.12027143	      1.35625347	      0.00000000	      0.00000000	      0.00000000	      0.00000000	      0.00000000	     68.23782544	     -7.27661702	     -0.59848625	     40.91189892	     48.85368655	      0.00000000	      5.00000014	     68.60000340	     -7.92034719	      0.14570677	     40.30984671	     54.19549284	      0.00000000	      5.00000014
      8.30000000	    -52.24175607	     -1.03767198	     -1.11871453	     -0.35179793	      0.98525568	      0.03465487	    112.61533522	     -6.61505753	     -0.15969304	    110.72836106	      1.93257448	     -3.78960129	    -11.30592308	      0.00000000	    100.75317677	     -6.55327205	     -1.10936481	     52.44703777	      0.91537349	     -7.24231339	     -0.50646876	      0.00000000	     -0.08581092	      0.14136935	      0.21231977	     -0.15935945	      0.18802123	      0.22558976	     -0.14097875	      0.34372543	      0.22558976	     -0.09807330	      0.34372543	      0.18577980	     -0.07968402	      0.28828037	      0.17250981	     -0.04903236	      0.21898112	      0.15923983	     -0.61293879	      1.59919832	      1.18085886	      0.00000000	      0.00000000	      0.00000000	      0.00000000	      0.00000000	     68.30034550	     -7.37973142	      0.06088916	     40.85123320	     48.94176551	      0.00000000	      5.00000014	     68.25889444	     -7.76328634	     -0.82605683	     40.45181854	     54.04786237	      0.00000000	      5.00000014
